<svg width="35" height="40" viewBox="0 0 35 40" fill="none" xmlns="http://www.w3.org/2000/svg">
<path d="M28.7686 21.2719C28.7888 19.7387 29.2059 18.2354 29.9812 16.9019C30.7564 15.5685 31.8645 14.4481 33.2024 13.645C32.3525 12.4599 31.2312 11.4847 29.9277 10.7967C28.6241 10.1087 27.1742 9.72687 25.6931 9.68163C22.5336 9.35784 19.4707 11.5274 17.8607 11.5274C16.2195 11.5274 13.7407 9.71377 11.0713 9.76738C9.34475 9.82185 7.66206 10.312 6.1872 11.1902C4.71235 12.0683 3.49565 13.3045 2.65563 14.7782C-0.983068 20.9288 1.73108 29.9682 5.2167 34.94C6.96065 37.3745 8.9988 40.0939 11.6657 39.9975C14.2755 39.8918 15.2501 38.3728 18.4003 38.3728C21.5212 38.3728 22.4356 39.9975 25.1567 39.9362C27.9571 39.8918 29.7214 37.4909 31.4042 35.0333C32.6572 33.2986 33.6214 31.3814 34.2611 29.3527C32.6341 28.6809 31.2457 27.5564 30.269 26.1194C29.2923 24.6824 28.7705 22.9965 28.7686 21.2719Z" fill="white"/>
<path d="M23.6298 6.41188C25.1567 4.62238 25.9089 2.32226 25.7268 0C23.394 0.239199 21.2393 1.32766 19.6918 3.04851C18.9351 3.88919 18.3557 4.86722 17.9864 5.92668C17.6172 6.98614 17.4655 8.10626 17.5399 9.223C18.7067 9.23473 19.861 8.98783 20.9158 8.50089C21.9707 8.01396 22.8987 7.29969 23.6298 6.41188Z" fill="white"/>
</svg>
