<svg width="129" height="128" viewBox="0 0 129 128" fill="none" xmlns="http://www.w3.org/2000/svg">
<rect x="27.6855" width="104.398" height="104.398" rx="20.8796" transform="rotate(15 27.6855 0)" fill="#FFE8C8" fill-opacity="0.5"/>
<rect x="12.1504" y="11.4838" width="104.398" height="104.398" rx="20.8796" fill="#FFE8C8"/>
<g clip-path="url(#clip0_316_16849)">
<path d="M54.4446 62.1147C46.4564 61.3645 40.3379 54.7407 40.3379 46.7058V43.892C40.3379 41.5646 42.2312 39.6712 44.5587 39.6712C46.8861 39.6712 48.7795 41.5646 48.7795 43.892C48.7795 44.6682 49.4101 45.2989 50.1864 45.2989H53.094C53.8717 45.2989 54.501 45.9282 54.501 46.7058C54.501 47.4835 53.8717 48.1128 53.094 48.1128H50.1864C47.859 48.1128 45.9656 46.2194 45.9656 43.892C45.9656 43.1157 45.3349 42.4851 44.5587 42.4851C43.7824 42.4851 43.1517 43.1157 43.1517 43.892V46.7058C43.1517 53.2802 48.1739 58.6991 54.7084 59.3118C55.482 59.3846 56.0494 60.0717 55.978 60.8452C55.9052 61.6163 55.2223 62.1854 54.4446 62.1147Z" fill="#4067B0"/>
<path d="M72.8147 60.8452C72.7432 60.0716 73.3107 59.3847 74.0842 59.3118C80.6187 58.699 85.5471 53.2802 85.5471 46.7058V43.892C85.5471 43.1157 84.9164 42.485 84.1402 42.485C83.3639 42.485 82.7332 43.1157 82.7332 43.892C82.7332 46.2194 80.8399 48.1127 78.5124 48.1127H75.6986C74.9209 48.1127 74.2917 47.4835 74.2917 46.7058C74.2917 45.9282 74.9209 45.2989 75.6986 45.2989H78.5124C79.2887 45.2989 79.9194 44.6682 79.9194 43.892C79.9194 41.5645 81.8127 39.6712 84.1402 39.6712C86.4676 39.6712 88.3609 41.5645 88.3609 43.892V46.7058C88.3609 54.7407 82.3362 61.3645 74.348 62.1147C73.5704 62.1854 72.8875 61.6163 72.8147 60.8452Z" fill="#4067B0"/>
<path d="M75.6991 39.6712H64.3499H53.0944C52.3168 39.6712 51.6875 40.3004 51.6875 41.0781V55.1474C51.6875 60.5264 55.1073 65.272 60.1291 67.0445V77.8458H64.3499H68.5706V67.0445C73.5924 65.2721 77.106 60.5264 77.106 55.1474V41.0781C77.106 40.3004 76.4767 39.6712 75.6991 39.6712Z" fill="#FFDF40"/>
<path d="M68.5704 67.0445C73.5922 65.2721 77.1058 60.5264 77.1058 55.1474V41.0781C77.1058 40.3004 76.4765 39.6712 75.6988 39.6712H64.3496V77.8458H68.5704V67.0445Z" fill="#FFBE40"/>
<path d="M71.5357 50.5199C71.3694 50.0101 70.9297 49.6392 70.3994 49.5623L67.091 49.0814L65.6113 46.0834C65.3749 45.6025 64.8625 45.3621 64.35 45.3621C63.8375 45.3621 63.325 45.6025 63.0887 46.0834L61.609 49.0814L58.3006 49.5623C57.7703 49.6392 57.3306 50.0101 57.1643 50.5199C56.9995 51.0283 57.1369 51.5875 57.5202 51.9612L59.915 54.2956L59.3502 57.5903C59.2595 58.1179 59.4767 58.651 59.9095 58.9656C60.3422 59.2816 60.9221 59.3229 61.3906 59.0728L64.3499 57.5188L67.3094 59.0727C67.7764 59.3204 68.3545 59.2841 68.7905 58.9655C69.2233 58.6509 69.4405 58.1178 69.3498 57.5902L68.785 54.2955L71.1798 51.9611C71.5631 51.5875 71.7005 51.0283 71.5357 50.5199Z" fill="#FFBE40"/>
<path d="M68.7902 58.9656C69.2229 58.651 69.4401 58.1179 69.3494 57.5903L68.7846 54.2956L71.1794 51.9612C71.5627 51.5875 71.7001 51.0283 71.5353 50.5199C71.369 50.0101 70.9293 49.6392 70.399 49.5623L67.0906 49.0814L65.6109 46.0834C65.3745 45.6025 64.8621 45.3621 64.3496 45.3621V57.5188L67.3091 59.0727C67.7759 59.3204 68.3541 59.2842 68.7902 58.9656Z" fill="#4067B0"/>
<path d="M75.6053 82.0666H74.1984V77.8459C74.1984 77.0682 73.5691 76.4389 72.7914 76.4389H64.3499H55.9083C55.1306 76.4389 54.5014 77.0682 54.5014 77.8459V82.0666H53.0944C52.3168 82.0666 51.6875 82.6959 51.6875 83.4736V86.2874C51.6875 87.0651 52.3168 87.6944 53.0944 87.6944H64.3499H75.6053C76.3829 87.6944 77.0122 87.0651 77.0122 86.2874V83.4736C77.0122 82.6959 76.3829 82.0666 75.6053 82.0666Z" fill="#4067B0"/>
<path d="M77.012 86.2874V83.4736C77.012 82.6959 76.3827 82.0666 75.605 82.0666H74.1981V77.8459C74.1981 77.0682 73.5688 76.4389 72.7912 76.4389H64.3496V87.6944H75.605C76.3827 87.6944 77.012 87.0651 77.012 86.2874Z" fill="#4067B0"/>
<path d="M67.1635 80.6597H64.3497H61.5358C60.7582 80.6597 60.1289 81.289 60.1289 82.0667C60.1289 82.8443 60.7582 83.4736 61.5358 83.4736H64.3497H67.1635C67.9412 83.4736 68.5705 82.8443 68.5705 82.0667C68.5705 81.289 67.9412 80.6597 67.1635 80.6597Z" fill="white"/>
<path d="M68.5704 82.0667C68.5704 81.289 67.9411 80.6597 67.1635 80.6597H64.3496V83.4736H67.1635C67.9411 83.4736 68.5704 82.8443 68.5704 82.0667Z" fill="white"/>
</g>
<defs>
<clipPath id="clip0_316_16849">
<rect width="48.0232" height="48.0232" fill="white" transform="translate(40.3379 39.6713)"/>
</clipPath>
</defs>
</svg>
