<svg width="36" height="40" viewBox="0 0 36 40" fill="none" xmlns="http://www.w3.org/2000/svg">
<path d="M16.4342 19.1028L0.242188 36.6765C0.243708 36.6797 0.243708 36.6843 0.245229 36.6874C0.742533 38.5957 2.44584 40 4.46851 40C5.27758 40 6.03646 39.7761 6.68737 39.3841L6.73907 39.353L24.9644 28.5988L16.4342 19.1028Z" fill="#EA4335"/>
<path d="M32.815 16.1103L32.7998 16.0994L24.9312 11.4354L16.0664 19.5022L24.9631 28.597L32.7892 23.9796C34.161 23.2207 35.0932 21.7417 35.0932 20.0372C35.0932 18.342 34.1746 16.8708 32.815 16.1103Z" fill="#FFCF6F"/>
<path d="M0.242789 3.32217C0.145457 3.68919 0.09375 4.07488 0.09375 4.47301V35.5272C0.09375 35.9254 0.145457 36.311 0.24431 36.6765L16.9914 19.5522L0.242789 3.32217Z" fill="#4285F4"/>
<path d="M16.5544 19.9999L24.934 11.4323L6.72995 0.63921C6.0684 0.233303 5.29583 2.28882e-05 4.47003 2.28882e-05C2.44736 2.28882e-05 0.741011 1.40748 0.243707 3.31726C0.243707 3.31882 0.242188 3.32037 0.242188 3.32193L16.5544 19.9999Z" fill="#34A853"/>
</svg>
