<svg width="128" height="128" viewBox="0 0 128 128" fill="none" xmlns="http://www.w3.org/2000/svg">
<rect x="27.0195" width="104.398" height="104.398" rx="20.8796" transform="rotate(15 27.0195 0)" fill="#FFE8C8" fill-opacity="0.5"/>
<rect x="11.4844" y="11.4838" width="104.398" height="104.398" rx="20.8796" fill="#FFE8C8"/>
<g clip-path="url(#clip0_316_16777)">
<path d="M54.8148 90.513H35.3013C34.3216 90.513 33.5273 89.7187 33.5273 88.739V67.4516C33.5273 66.4719 34.3216 65.6776 35.3013 65.6776H54.8148C55.7945 65.6776 56.5887 66.4719 56.5887 67.4516V88.739C56.5887 89.7187 55.7945 90.513 54.8148 90.513Z" fill="#4067B0"/>
<path d="M54.8136 65.6776H44.1699V90.513H54.8136C55.7933 90.513 56.5876 89.7187 56.5876 88.739V67.4516C56.5876 66.4719 55.7933 65.6776 54.8136 65.6776Z" fill="#4067B0"/>
<path d="M88.184 44.2148L83.4343 42.3226L78.2116 44.2148L76.7055 57.0166C76.6464 57.5197 76.8051 58.0241 77.1417 58.4027C77.4782 58.7812 77.9607 58.9978 78.4673 58.9978H87.9284C88.4349 58.9978 88.9173 58.7812 89.254 58.4027C89.5907 58.0241 89.7493 57.5197 89.6901 57.0166L88.184 44.2148Z" fill="#4067B0"/>
<path d="M89.6896 57.0166L88.1835 44.2148L83.4338 42.3226L83.1973 42.4083V58.9978H87.9278C88.4343 58.9978 88.9167 58.7812 89.2534 58.4027C89.5901 58.0241 89.7487 57.5196 89.6896 57.0166Z" fill="#4067B0"/>
<path d="M58.9653 57.0165C58.9061 57.5196 59.0648 58.024 59.4014 58.4026C59.738 58.7812 60.2205 58.9977 60.727 58.9977H70.1881C70.6946 58.9977 71.177 58.7812 71.5137 58.4026C71.8504 58.024 72.009 57.5196 71.9499 57.0165L70.4438 44.2148L65.5758 41.3764L60.4714 44.2148L58.9653 57.0165Z" fill="#4067B0"/>
<path d="M71.9493 57.0165L70.4433 44.2148L65.5753 41.3764L65.457 41.4422V58.9977H70.1876C70.6941 58.9977 71.1765 58.7812 71.5132 58.4026C71.8499 58.024 72.0085 57.5195 71.9493 57.0165Z" fill="#4067B0"/>
<path d="M87.3242 36.9118C87.2192 36.0183 86.4619 35.345 85.5624 35.345H80.8319C79.9324 35.345 79.1751 36.0183 79.0701 36.9118L78.2109 44.2148H88.1835L87.3242 36.9118Z" fill="#FFA900"/>
<path d="M87.3243 36.9118C87.2193 36.0183 86.462 35.345 85.5625 35.345H83.1973V44.2148H88.1835L87.3243 36.9118Z" fill="#FFA900"/>
<path d="M67.8222 35.345H63.0917C62.1921 35.345 61.4349 36.0183 61.3299 36.9118L60.4707 44.2148H70.4433L69.5841 36.9118C69.479 36.0183 68.7217 35.345 67.8222 35.345Z" fill="#FFA900"/>
<path d="M69.5841 36.9118C69.4791 36.0183 68.7218 35.345 67.8223 35.345H65.457V44.2148H70.4433L69.5841 36.9118Z" fill="#FFA900"/>
<path d="M40.6236 79.8692C39.6439 79.8692 38.8496 79.075 38.8496 78.0953V74.5474C38.8496 73.5677 39.6439 72.7734 40.6236 72.7734C41.6033 72.7734 42.3975 73.5677 42.3975 74.5474V78.0953C42.3975 79.075 41.6033 79.8692 40.6236 79.8692Z" fill="#FFF8EE"/>
<path d="M47.7193 79.8692C46.7396 79.8692 45.9453 79.0749 45.9453 78.0952V74.5473C45.9453 73.5676 46.7396 72.7734 47.7193 72.7734C48.699 72.7734 49.4932 73.5676 49.4932 74.5473V78.0952C49.4932 79.0749 48.699 79.8692 47.7193 79.8692Z" fill="white"/>
<path d="M79.6498 90.5129H92.0675C93.0472 90.5129 93.8414 89.7187 93.8414 88.739V60.3557C93.8414 59.376 93.0472 58.5818 92.0675 58.5818H56.5884C55.6087 58.5818 54.8145 59.376 54.8145 60.3557V90.5129H69.0061L74.0914 89.5668L79.6498 90.5129Z" fill="#FFA900"/>
<path d="M92.0677 58.5818H74.3281V89.607L79.65 90.5129H92.0677C93.0473 90.5129 93.8416 89.7187 93.8416 88.739V60.3557C93.8416 59.376 93.0473 58.5818 92.0677 58.5818Z" fill="#FFA900"/>
<path d="M63.6841 83.4172C62.7044 83.4172 61.9102 82.6229 61.9102 81.6432V78.0953C61.9102 77.1156 62.7044 76.3214 63.6841 76.3214C64.6638 76.3214 65.4581 77.1156 65.4581 78.0953V81.6432C65.4581 82.6229 64.6638 83.4172 63.6841 83.4172Z" fill="#FFF8EE"/>
<path d="M63.6841 72.7734C62.7044 72.7734 61.9102 71.9791 61.9102 70.9994V67.4515C61.9102 66.4718 62.7044 65.6776 63.6841 65.6776C64.6638 65.6776 65.4581 66.4718 65.4581 67.4515V70.9994C65.4581 71.9791 64.6638 72.7734 63.6841 72.7734Z" fill="#FFF8EE"/>
<path d="M84.9712 83.4171C83.9915 83.4171 83.1973 82.6229 83.1973 81.6432V78.0953C83.1973 77.1156 83.9915 76.3213 84.9712 76.3213C85.9509 76.3213 86.7452 77.1156 86.7452 78.0953V81.6432C86.7452 82.6229 85.9509 83.4171 84.9712 83.4171Z" fill="white"/>
<path d="M84.9712 72.7734C83.9915 72.7734 83.1973 71.9792 83.1973 70.9995V67.4516C83.1973 66.4719 83.9915 65.6776 84.9712 65.6776C85.9509 65.6776 86.7452 66.4719 86.7452 67.4516V70.9995C86.7452 71.9792 85.9509 72.7734 84.9712 72.7734Z" fill="white"/>
<path d="M70.7798 72.7734C69.8001 72.7734 69.0059 71.9792 69.0059 70.9995V67.4516C69.0059 66.4719 69.8001 65.6776 70.7798 65.6776C71.7595 65.6776 72.5538 66.4719 72.5538 67.4516V70.9995C72.5538 71.9792 71.7595 72.7734 70.7798 72.7734Z" fill="#FFF8EE"/>
<path d="M77.8755 72.7734C76.8958 72.7734 76.1016 71.9792 76.1016 70.9995V67.4516C76.1016 66.4719 76.8958 65.6776 77.8755 65.6776C78.8552 65.6776 79.6495 66.4719 79.6495 67.4516V70.9995C79.6495 71.9792 78.8552 72.7734 77.8755 72.7734Z" fill="white"/>
<path d="M77.8756 76.3213H70.7798C69.8001 76.3213 69.0059 77.1156 69.0059 78.0953V90.5129H72.5538L74.2095 89.3303L76.1017 90.5129H79.6496V78.0953C79.6496 77.1156 78.8553 76.3213 77.8756 76.3213Z" fill="#FFF8EE"/>
<path d="M77.8741 76.3214H74.3262V89.4043L76.1001 90.513H79.648V78.0953C79.648 77.1156 78.8538 76.3214 77.8741 76.3214Z" fill="white"/>
<path d="M72.5527 79.8693H76.1006V90.513H72.5527V79.8693Z" fill="#FFA900"/>
<path d="M74.3262 79.8693H76.1001V90.513H74.3262V79.8693Z" fill="#FFA900"/>
</g>
<defs>
<clipPath id="clip0_316_16777">
<rect width="60.5509" height="60.5509" fill="white" transform="translate(33.4082 30.2755)"/>
</clipPath>
</defs>
</svg>
