<svg width="73" height="72" viewBox="0 0 73 72" fill="none" xmlns="http://www.w3.org/2000/svg">
<path d="M62.0544 0H11.8597C5.83832 0 0.957031 4.88129 0.957031 10.9027V61.0973C0.957031 67.1187 5.83832 72 11.8597 72H62.0544C68.0757 72 72.957 67.1187 72.957 61.0973V10.9027C72.957 4.88129 68.0757 0 62.0544 0Z" fill="white"/>
<mask id="mask0_316_16608" style="mask-type:luminance" maskUnits="userSpaceOnUse" x="0" y="0" width="73" height="72">
<path d="M62.0544 0H11.8597C5.83832 0 0.957031 4.88129 0.957031 10.9027V61.0973C0.957031 67.1187 5.83832 72 11.8597 72H62.0544C68.0757 72 72.957 67.1187 72.957 61.0973V10.9027C72.957 4.88129 68.0757 0 62.0544 0Z" fill="white"/>
</mask>
<g mask="url(#mask0_316_16608)">
<path fill-rule="evenodd" clip-rule="evenodd" d="M46.6595 -4.95496H71.3786L61.1917 16.7336L76.1816 21.73L46.1793 72L53.5009 35.5936L36.5605 30.799L45.37 -4.95496H46.6595Z" fill="#4067B0"/>
<path fill-rule="evenodd" clip-rule="evenodd" d="M66.1919 -1.65173H47.9493L40.5215 28.494L57.3276 33.25L53.1883 53.8304L71.2572 23.5553L56.6406 18.6826L66.1919 -1.65173Z" fill="white"/>
<path d="M8.93555 35.4487C10.4402 27.5871 11.5631 21.1929 12.2571 16.5431L16.4667 16.2386C15.7903 19.0786 15.2405 21.6316 14.8186 23.8971L17.3801 23.5926C17.6163 22.3755 17.8322 21.1879 18.027 20.0299C18.221 18.8718 18.4706 17.6843 18.7751 16.4671C19.4508 16.349 20.1701 16.2604 20.9309 16.2007C21.6916 16.1416 22.2155 16.1036 22.503 16.0868L22.9341 16.0361C22.1058 18.7411 21.2944 22.5365 20.4998 27.4225C20.111 29.6205 19.7559 33.1502 19.4346 35.4487H15.244C15.4634 34.4179 15.7952 32.6207 15.9731 31.7081C16.1503 30.7954 16.3282 29.8912 16.5054 28.9947C16.6826 28.0989 16.8309 27.3297 16.9491 26.6871L14.4129 26.9156C14.0241 29.0629 13.3554 32.5582 12.7809 35.4494H8.93625L8.93555 35.4487Z" fill="black" stroke="white" stroke-width="0.25" stroke-miterlimit="10"/>
<path d="M25.1648 30.8206L24.0897 35.4486H19.6621C20.3554 33.1494 20.9425 30.8628 21.4248 29.2731C21.9065 27.684 22.2995 26.3783 22.604 25.3552C22.9084 24.3322 23.2087 23.3183 23.504 22.3121C23.7993 21.3066 24.0869 20.3342 24.366 19.3956C24.6452 18.4576 24.8941 17.5998 25.1141 16.8214C28.2416 16.602 30.6252 16.3313 32.2656 16.01C32.1138 17.6834 31.9865 19.662 31.8852 21.9444C31.6652 26.4922 31.2412 31.6109 31.0893 35.4486H26.9261C27.1117 33.8258 27.2868 32.1221 27.4225 30.8206H25.1655H25.1648ZM25.7737 28.2338L27.6503 28.1073C27.6503 28.006 27.663 27.8324 27.6883 27.5877C27.7136 27.343 27.7431 27.0596 27.7769 26.7383C27.9119 24.9292 28.056 23.2473 28.2079 21.692L28.3851 19.4349L27.9794 19.4602L25.773 28.2345L25.7737 28.2338Z" fill="black" stroke="white" stroke-width="0.25" stroke-miterlimit="10"/>
<path d="M36.3738 31.6068C37.0165 31.5562 37.9123 31.5308 39.0619 31.5308C39.0956 32.1904 39.0809 32.7219 39.0696 33.1417C39.0577 33.6023 39.0696 33.9039 39.0696 34.1451V35.4494H33.2435C32.6016 35.4339 32.2655 35.4494 31.7578 35.4494C32.1635 32.3219 32.7 28.8941 33.368 25.4446C34.0359 21.9958 34.6062 19.0968 35.0801 16.7462L39.6448 16.1373C38.0726 22.7987 37.155 26.8895 36.8934 28.4111C36.6312 29.9326 36.4582 30.9979 36.3738 31.6061V31.6068Z" fill="black" stroke="white" stroke-width="0.25" stroke-miterlimit="10"/>
<path d="M44.9499 30.8206L43.7216 35.4486H39.4121C40.1054 33.1494 40.7277 30.8628 41.2093 29.2731C41.6909 27.684 42.084 26.3783 42.3884 25.3552C42.6929 24.3322 42.9931 23.3183 43.2884 22.3121C43.5838 21.3066 43.8713 20.3342 44.1505 19.3956C44.4296 18.4576 44.6785 17.5998 44.8986 16.8214C48.0261 16.602 50.4097 16.3313 52.0501 16.01C51.8982 17.6834 51.7709 19.662 51.6697 21.9444C51.4496 26.4922 51.1374 31.6109 50.9855 35.4486H46.6796C46.8652 33.8258 47.0713 32.1221 47.207 30.8206H44.9499ZM45.5588 28.2338L47.4355 28.1073C47.4355 28.006 47.4481 27.8324 47.4734 27.5877C47.4988 27.343 47.5283 27.0596 47.562 26.7383C47.697 24.9292 47.8412 23.2473 47.993 21.692L48.1702 19.4349L47.7645 19.4602L45.5581 28.2345L45.5588 28.2338Z" fill="black" stroke="white" stroke-width="0.25" stroke-miterlimit="10"/>
<path d="M55.3224 16.2393H56.0579C56.3961 16.2393 57.3425 16.2055 58.8978 16.138C59.1341 17.3551 59.3541 18.4879 59.5573 19.5362C60.098 22.5456 60.47 24.4813 60.6732 25.3433C60.7407 24.9883 60.8166 24.5826 60.9017 24.1262C60.9861 23.6699 61.0789 23.1925 61.1809 22.6933C61.2821 22.1948 61.3841 21.6836 61.4853 21.1591C61.6541 20.3308 62.0007 18.6658 62.5252 16.1633L65.6949 15.783C63.852 24.321 62.694 31.7298 62.2377 35.4494H57.9831C57.6448 30.8172 57.301 27.2453 56.8946 25.318C56.844 25.6394 56.7758 26.0155 56.6914 26.4466C56.6063 26.8776 56.522 27.3388 56.4376 27.8289C56.1163 29.6718 55.418 32.8464 54.8942 35.4494H51.3652C53.2925 26.2694 54.4168 19.8154 54.7381 16.214C54.9744 16.2308 55.1691 16.2393 55.3217 16.2393H55.3224Z" fill="black" stroke="white" stroke-width="0.25" stroke-miterlimit="10"/>
<path d="M55.9734 52.5143C56.6161 52.4636 57.5119 52.4383 58.6615 52.4383C58.6952 53.0979 58.7459 53.6343 58.8134 54.0485C58.8809 54.4626 58.9273 54.7671 58.9526 54.9611C58.9779 55.1559 58.9413 54.9386 58.9589 55.0061L58.1918 55.1278C56.3377 55.4217 54.7226 55.6783 52.9451 55.9596C52.3523 56.0482 51.8644 56.1143 51.3574 56.2162C51.7631 53.0887 52.2996 49.8002 52.9676 46.3514C53.6355 42.9025 54.2058 39.0227 54.6797 36.6729H59.328C57.7559 43.3343 56.7553 47.797 56.493 49.3186C56.2308 50.8401 56.0578 51.9054 55.9734 52.5136V52.5143Z" fill="black" stroke="white" stroke-width="0.25" stroke-miterlimit="10"/>
<path d="M8.2207 56.2172C9.72539 48.3555 10.8237 41.3229 11.5177 36.6738H15.7273C15.0509 39.5138 14.501 42.5407 14.0791 44.8055L16.6406 44.501C16.8769 43.2839 17.0927 42.0963 17.2875 40.9383C17.4816 39.7802 17.7312 37.8909 18.0356 36.6738H20.1141C20.877 36.6738 21.3952 36.6907 21.6827 36.6738H22.1946C21.3663 39.3788 20.5549 43.4449 19.7604 48.3309C19.3716 50.5289 19.0165 52.7775 18.6952 55.0767L14.6374 55.533C14.8568 54.5023 15.0558 53.5298 15.2337 52.6165C15.4109 51.7038 15.5888 50.7996 15.7659 49.9031C15.9431 49.0073 16.0915 48.2381 16.2096 47.5955L13.6734 47.824C13.2846 49.9713 12.8023 52.4899 12.2278 55.3812L8.2207 56.2179V56.2172Z" fill="black" stroke="white" stroke-width="0.25" stroke-miterlimit="10"/>
<path d="M24.4252 51.7282L23.3853 55.4562C22.9965 55.5068 22.5444 55.5666 22.0283 55.6334C21.5122 55.7009 21.001 55.7648 20.4941 55.8239C19.9871 55.8837 19.4633 55.9469 18.9219 56.0144C19.6152 53.7152 20.2023 51.7711 20.6846 50.182C21.1662 48.593 21.5593 47.2873 21.8637 46.2642C22.1682 45.2412 22.4684 44.2273 22.7638 43.2211C23.0591 42.2156 23.3466 41.2432 23.6258 40.3045C23.9049 39.3666 24.3627 37.4519 24.582 36.6736H31.5247C31.3728 38.347 31.2455 40.5703 31.1443 42.8526C30.9242 47.4005 30.7386 51.5932 30.5867 55.4309C30.0798 55.5159 29.5848 55.5919 29.1031 55.6594C28.6215 55.7269 28.1223 55.8035 27.6069 55.8879C27.0908 55.973 26.6218 56.0489 26.1992 56.1164C26.3848 54.4936 26.5452 53.0311 26.6809 51.7296H24.4238L24.4252 51.7282ZM25.0341 49.1414L26.9108 49.0148C26.9108 48.9136 26.9234 48.7399 26.9488 48.4952C26.9741 48.2505 27.0036 47.9672 27.0373 47.6458C27.1723 45.8367 27.3165 44.1548 27.4684 42.5995L27.6455 40.3425L27.2398 40.3678L25.0334 49.1421L25.0341 49.1414Z" fill="black" stroke="white" stroke-width="0.25" stroke-miterlimit="10"/>
<path d="M35.6336 52.5143C36.2763 52.4636 37.172 52.4383 38.3216 52.4383C38.3554 53.0979 38.406 53.6343 38.4735 54.0485C38.541 54.4626 38.5874 54.7671 38.6127 54.9611C38.638 55.1559 38.6015 54.9386 38.6191 55.0061L37.852 55.1278C35.9978 55.4217 34.3827 55.6783 32.6052 55.9596C32.0125 56.0482 31.5245 56.1143 31.0176 56.2162C31.4233 53.0887 31.9598 49.8002 32.6277 46.3514C33.2957 42.9025 33.8659 39.0227 34.3398 36.6729H38.9882C37.416 43.3343 36.4155 47.797 36.1532 49.3186C35.8909 50.8401 35.718 51.9054 35.6336 52.5136V52.5143Z" fill="black" stroke="white" stroke-width="0.25" stroke-miterlimit="10"/>
<path d="M44.7475 51.7282L43.7076 55.4561C43.3187 55.5067 42.8666 55.5665 42.3505 55.6333C41.8345 55.7008 41.3233 55.7648 40.8163 55.8239C40.3094 55.8836 39.7855 55.9469 39.2441 56.0144C39.9374 53.7152 40.5245 51.771 41.0069 50.182C41.4885 48.5929 41.8816 47.2872 42.186 46.2642C42.4905 45.2411 42.7907 44.2272 43.086 43.221C43.3813 42.2156 43.6689 41.2432 43.948 40.3045C44.2272 39.3665 44.7046 37.4688 44.9247 36.6911C48.1302 36.6742 50.1475 36.6742 51.9067 36.6911C51.7548 38.3646 51.5685 40.571 51.4673 42.8533C51.2472 47.4011 51.0616 51.5939 50.9097 55.4315C50.4027 55.5166 49.9077 55.5925 49.4261 55.66C48.9445 55.7275 48.4452 55.8042 47.9298 55.8885C47.4137 55.9736 46.9448 56.0496 46.5222 56.1171C46.7078 54.4942 46.8681 53.0317 47.0038 51.7303H44.7468L44.7475 51.7282ZM45.3564 49.1414L47.233 49.0148C47.233 48.9135 47.2457 48.7399 47.271 48.4952C47.2963 48.2505 47.3259 47.9671 47.3596 47.6458C47.4946 45.8367 47.6387 44.1548 47.7906 42.5995L47.9678 40.3425L47.5621 40.3678L45.3557 49.1421L45.3564 49.1414Z" fill="black" stroke="white" stroke-width="0.25" stroke-miterlimit="10"/>
</g>
</svg>
