<svg width="129" height="128" viewBox="0 0 129 128" fill="none" xmlns="http://www.w3.org/2000/svg">
<rect x="11.8184" y="11.4838" width="104.398" height="104.398" rx="20.8796" fill="#FFE8C8"/>
<rect x="27.3535" width="104.398" height="104.398" rx="20.8796" transform="rotate(15 27.3535 0)" fill="#4067B0"/>
<g clip-path="url(#clip0_316_16834)">
<path d="M61.9378 57.3056H59.0391V60.2044H61.9378C62.7383 60.2044 63.3872 59.5554 63.3872 58.755C63.3872 57.9545 62.7383 57.3056 61.9378 57.3056Z" fill="#FFB35C"/>
<path d="M61.9378 67.4513H59.0391V70.35H61.9378C62.7383 70.35 63.3872 69.7011 63.3872 68.9007C63.3872 68.1002 62.7383 67.4513 61.9378 67.4513Z" fill="#FFB35C"/>
<path d="M60.4886 68.9006C60.4886 68.1002 59.8397 67.4512 59.0392 67.4512H58.2179V60.2043H59.0392C59.8397 60.2043 60.4886 59.5554 60.4886 58.7549C60.4886 57.9545 59.8397 57.3055 59.0392 57.3055H58.2179V53.5854C58.2179 52.785 57.569 52.136 56.7685 52.136C55.9681 52.136 55.3191 52.785 55.3191 53.5854V57.3055H48.0722V53.5854C48.0722 52.785 47.4232 52.136 46.6228 52.136C45.8223 52.136 45.1734 52.785 45.1734 53.5854V57.3055H41.4533C40.6528 57.3055 40.0039 57.9545 40.0039 58.7549C40.0039 59.5554 40.6528 60.2043 41.4533 60.2043H45.1734V67.4512H41.4533C40.6528 67.4512 40.0039 68.1002 40.0039 68.9006C40.0039 69.7011 40.6528 70.35 41.4533 70.35H45.1734V74.0701C45.1734 74.8706 45.8223 75.5195 46.6228 75.5195C47.4232 75.5195 48.0722 74.8706 48.0722 74.0701V70.35H55.3191V74.0701C55.3191 74.8706 55.9681 75.5195 56.7685 75.5195C57.569 75.5195 58.2179 74.8706 58.2179 74.0701V70.35H59.0392C59.8397 70.35 60.4886 69.7011 60.4886 68.9006ZM55.3191 67.4512H48.0722V60.2043H55.3191V67.4512Z" fill="#FFA900"/>
<path d="M83.6784 78.9981V44.0194C83.6784 41.618 81.7316 39.6713 79.3302 39.6713H66.2857C63.8842 39.6713 61.9375 41.618 61.9375 44.0194C61.9375 46.4209 63.8842 48.3676 66.2857 48.3676V78.9981C63.8842 78.9981 61.9375 80.9448 61.9375 83.3462C61.9375 85.7477 63.8842 87.6944 66.2857 87.6944H83.6784C86.0798 87.6944 88.0265 85.7477 88.0265 83.3462C88.0265 80.9448 86.0798 78.9981 83.6784 78.9981Z" fill="#FFA900"/>
<path d="M77.8805 82.0418V44.1644C77.8805 43.3639 77.2315 42.715 76.4311 42.715H66.2853C65.4849 42.715 64.8359 43.3639 64.8359 44.1644C64.8359 44.9648 65.4849 45.6137 66.2853 45.6137H69.1841V82.0418H66.2853C65.4849 82.0418 64.8359 82.6907 64.8359 83.4912C64.8359 84.2916 65.4849 84.9405 66.2853 84.9405H80.7792C79.1783 84.9405 77.8805 83.6428 77.8805 82.0418Z" fill="#FFBE40"/>
</g>
<defs>
<clipPath id="clip0_316_16834">
<rect width="48.0232" height="48.0232" fill="white" transform="translate(40.0059 39.6713)"/>
</clipPath>
</defs>
</svg>
